<svg width="257" height="257" viewBox="0 0 257 257" fill="none" xmlns="http://www.w3.org/2000/svg">
<path d="M146.672 69.3257H93.339C90.1957 69.3257 87.1812 70.5744 84.9585 72.797C82.7359 75.0197 81.4872 78.0342 81.4872 81.1775V175.992C81.4872 179.136 82.7359 182.15 84.9585 184.373C87.1812 186.596 90.1957 187.844 93.339 187.844H164.45C167.593 187.844 170.608 186.596 172.831 184.373C175.053 182.15 176.302 179.136 176.302 175.992V98.9553L146.672 69.3257Z" stroke="white" stroke-width="11.838" stroke-linecap="round" stroke-linejoin="round"/>
<path d="M140.745 69.3259V93.0296C140.745 96.1729 141.994 99.1875 144.217 101.41C146.439 103.633 149.454 104.881 152.597 104.881H176.301M117.042 110.807H105.19M152.597 134.511H105.19M152.597 158.215H105.19" stroke="white" stroke-width="11.838" stroke-linecap="round" stroke-linejoin="round"/>
</svg>
