<svg width="256" height="257" viewBox="0 0 256 257" fill="none" xmlns="http://www.w3.org/2000/svg">
<path d="M175.408 176.195C178.551 176.195 181.566 174.947 183.788 172.724C186.011 170.501 187.26 167.487 187.26 164.343V105.084C187.26 101.941 186.011 98.9263 183.788 96.7037C181.566 94.481 178.551 93.2324 175.408 93.2324H128.593C126.611 93.2518 124.655 92.7738 122.906 91.842C121.156 90.9103 119.668 89.5546 118.578 87.899L113.778 80.7879C112.699 79.1492 111.23 77.8041 109.502 76.8732C107.775 75.9424 105.844 75.4549 103.882 75.4546H80.5928C77.4495 75.4546 74.4349 76.7033 72.2123 78.9259C69.9896 81.1486 68.741 84.1631 68.741 87.3064V164.343C68.741 167.487 69.9896 170.501 72.2123 172.724C74.4349 174.947 77.4495 176.195 80.5928 176.195H175.408Z" stroke="white" stroke-width="11.838" stroke-linecap="round" stroke-linejoin="round"/>
</svg>
